<svg id="_0498_online_lesson" xmlns="http://www.w3.org/2000/svg" viewBox="0 0 500 500" data-imageid="online-class-19" imageName="Online Class" class="illustrations_image" style="width: 151px;"><defs><style>.cls-1_online-class-19{fill:#f4a28c;}.cls-2_online-class-19{fill:#a5a5a5;}.cls-3_online-class-19{opacity:.27;}.cls-3_online-class-19,.cls-4_online-class-19{fill:#e6e6e6;}.cls-5_online-class-19{opacity:.03;}.cls-5_online-class-19,.cls-6_online-class-19{fill:#000001;}.cls-7_online-class-19{fill:#ce8172;opacity:.31;}.cls-8_online-class-19{opacity:.58;}.cls-8_online-class-19,.cls-9_online-class-19,.cls-10_online-class-19{fill:#68e1fd;}.cls-11_online-class-19{fill:#fff;opacity:.46;}.cls-12_online-class-19{fill:#24285b;}.cls-6_online-class-19{opacity:.08;}.cls-9_online-class-19{opacity:.73;}.cls-13_online-class-19{fill:#ffd200;}</style></defs><ellipse id="bg_online-class-19" class="cls-5_online-class-19" cx="245.1" cy="430.24" rx="231.09" ry="32.6"/><g id="lesson_online-class-19"><rect class="cls-3_online-class-19" x="73.96" y="37.16" width="412.03" height="297.28"/><polygon class="cls-2_online-class-19" points="248.84 303.86 233.19 403.28 337.56 403.28 313.57 303.86 248.84 303.86"/><rect class="cls-4_online-class-19" x="73.96" y="273.28" width="412.03" height="61.15"/><circle class="cls-2_online-class-19" cx="282.27" cy="300.21" r="16.55"/><rect class="cls-4_online-class-19" x="209.37" y="385.86" width="146.8" height="31.95"/><path class="cls-12_online-class-19" d="m382.52,79.37s8.73-7.39,15.6-2.23c6.87,5.16,2.21,26.03,17.16,21.23,0,0-16.24,13.47-27.61-8.53l-5.15-10.47Z"/><rect class="cls-4_online-class-19" x="109.42" y="101.81" width="209.68" height="138.48"/><rect class="cls-2_online-class-19" x="103.9" y="240.29" width="220.7" height="8.83"/><path class="cls-6_online-class-19" d="m319.1,225.86v14.43h-33.63c-25.06-21.25-15.3-66.71-15.59-75.11-.37-10.95,4.82-7.81,4.82-7.81l7.85,21.29,11.12,27.79,25.43,19.41Z"/><path class="cls-10_online-class-19 targetColor" d="m389.49,93.69s5.94-.84,3.48-8.93c-2.45-8.09-9.16-7.79-11.08-5.67l7.6,14.61Z" style="fill: rgb(104, 225, 253);"/><path class="cls-1_online-class-19" d="m371.76,89.3s.73,7.04,2.78,11.42c.83,1.78,2.98,2.55,4.75,1.7,2.19-1.06,4.85-3.14,4.91-6.96l.91-6.47s.43-4.07-4.03-6.14c-4.46-2.07-9.98,2.18-9.32,6.45Z"/><polygon class="cls-1_online-class-19" points="386.56 92.59 391.17 115.32 378.46 116.97 380.17 100.2 386.56 92.59"/><path class="cls-1_online-class-19" d="m372.44,93.71l-1.42,3.05c-.35.75.2,1.62,1.03,1.61h2.75s-2.36-4.66-2.36-4.66Z"/><path class="cls-7_online-class-19" d="m380.12,100.67s2.63-.8,3.88-2.52c0,0,1.46,4.86-4.37,7.32l.49-4.8Z"/><path class="cls-1_online-class-19" d="m386.09,92.71s-.46-2.69,1.59-2.87c2.05-.18,2.74,3.7.08,4.58l-1.67-1.72Z"/><path class="cls-12_online-class-19" d="m373.15,88.7c1.72.14,3.92-.05,6.75-.79,0,0,2.32,7.65,8.74,8.9,0,0,4.55-12.33-3.17-16.03-6.47-3.1-11.34-5.94-15.79-.88-2.85,3.24-.83,8.43,3.47,8.79Z"/><path class="cls-1_online-class-19" d="m362.49,185.28s-.41,48.89-33.51,52.15c-33.1,3.26-52.47-62.2-52.47-62.2,0,0-5.64-6.62,0-11.03,0,0-3.92-10.3-.49-10.79,3.43-.49,7.85,17.65,7.85,17.65,0,0,19.21,33.76,35.23,36.37,16.01,2.62,2.79-50.1,38.82-75.84,36.04-25.74,4.57,53.7,4.57,53.7Z"/><path class="cls-1_online-class-19" d="m380.24,92.03s-.04-3.16,2.51-2.96c2.55.2,2.93,3.87-.04,5.66l-2.47-2.71Z"/><path class="cls-10_online-class-19 targetColor" d="m391.17,115.32l-12.71,1.64s-68.78,33.01-29.41,79.5c3.3,3.9,5.49,8.6,6.13,13.67l3.57,28.56h51.65s74.61-106.69-19.23-123.37Z" style="fill: rgb(104, 225, 253);"/><path class="cls-6_online-class-19" d="m390.79,141.75s-14.45,21.9,5.35,42.63c19.8,20.73,8.32,38.81-14.24,24.61-22.56-14.21-26.22,4.3-26.22,4.3l1.35,11.62,35.13-.39,38.92.15,13.7-32.47-53.98-50.45Z"/><rect class="cls-13_online-class-19" x="340.46" y="157.91" width="39.9" height="52.95" transform="translate(761.96 235.8) rotate(160.2)"/><path class="cls-6_online-class-19" d="m358.58,196.84s-12.14,2.71-7.98,19.21l20.93-7.39-12.96-11.81Z"/><polygon class="cls-12_online-class-19" points="432.75 273.31 421.82 224.92 357.02 224.92 349 273.31 432.75 273.31"/><path class="cls-1_online-class-19" d="m390.79,141.75c-.8-15.25,16.91-24.32,29.28-15.37,16.72,12.09,40.43,32.67,33.95,86.12-7.85,64.82-89.12-2.36-89.12-2.36l3.36-8.55s44.67,27.92,56.66,10.42c3.69-5.39-1.36-13.55-5.17-20.02-6.87-11.69-27.99-31.61-28.96-50.23Z"/><path class="cls-1_online-class-19" d="m368.27,201.58s-3.34-8.74-8.94-6.8c-5.6,1.94-1.55,13.56,5.58,14.21l3.36-7.4Z"/><path class="cls-10_online-class-19 targetColor" d="m396.14,116.33s1.76-5.48-8.37-6.63c-10.14-1.15-18.24,3.16-14.91,10.33,0,0,7.64,6.09,23.28-3.7Z" style="fill: rgb(104, 225, 253);"/><path class="cls-11_online-class-19" d="m396.14,116.33s1.76-5.48-8.37-6.63c-10.14-1.15-18.24,3.16-14.91,10.33,0,0,7.64,6.09,23.28-3.7Z"/><rect class="cls-12_online-class-19" x="364.24" y="201.03" width="6.74" height="12.8" transform="translate(522.98 599.89) rotate(-141.03)"/><rect class="cls-6_online-class-19" x="230.65" y="126.45" width="48.06" height="5.93"/><rect class="cls-6_online-class-19" x="137.81" y="126.45" width="88.24" height="5.93"/><rect class="cls-6_online-class-19" x="137.81" y="145.87" width="22.74" height="5.93"/><rect class="cls-6_online-class-19" x="169.43" y="145.87" width="79.98" height="5.93"/><rect class="cls-6_online-class-19" x="137.81" y="165.29" width="54.33" height="5.93"/><rect class="cls-6_online-class-19" x="199.71" y="165.29" width="48.06" height="5.93"/><rect class="cls-6_online-class-19" x="137.81" y="184.71" width="25.04" height="5.93"/><rect class="cls-6_online-class-19" x="167.13" y="184.71" width="64.51" height="5.93"/><circle class="cls-10_online-class-19 targetColor" cx="100.99" cy="59.87" r="6.85" style="fill: rgb(104, 225, 253);"/><circle class="cls-13_online-class-19" cx="120.39" cy="59.87" r="6.85"/><circle class="cls-12_online-class-19" cx="138.27" cy="59.87" r="6.85"/></g><g id="plant_online-class-19"><path class="cls-8_online-class-19 targetColor" d="m427.9,409.06s-16.47-4.5-20.05-19.82c0,0,25.51-5.16,26.24,21.18l-6.19-1.35Z" style="fill: rgb(104, 225, 253);"/><path class="cls-9_online-class-19 targetColor" d="m429.91,407.42s-11.5-18.19-1.38-35.19c0,0,19.4,12.32,10.78,35.23l-9.4-.04Z" style="fill: rgb(104, 225, 253);"/><path class="cls-10_online-class-19 targetColor" d="m432.88,407.44s6.08-19.21,24.45-22.85c0,0,3.44,12.47-11.9,22.9l-12.55-.05Z" style="fill: rgb(104, 225, 253);"/><polygon class="cls-12_online-class-19" points="420.94 407 424.27 429.84 445.3 429.93 448.4 407.12 420.94 407"/></g><g id="student_online-class-19"><path class="cls-1_online-class-19" d="m87,254.74s36.9,9.96,54.65,1.76c17.74-8.21,15.62-46.81,15.62-46.81,0,0-1.41-16.66-.71-17.64s3,0,2.74,5.83c0,0,3.88-.09,4.77,3.71.88,3.8-1.68,6.36-1.68,6.36,0,0,17.66,42.26-4.33,63.15-21.98,20.89-71.07,4.73-71.07,4.73v-21.09Z"/><path class="cls-1_online-class-19" d="m93.86,225.72s1.77,6.37,1.48,10.88c-.12,1.83-1.72,3.24-3.55,3.09-2.27-.18-5.28-1.08-6.64-4.37l-3-5.31s-1.76-3.4,1.41-6.71c3.17-3.32,9.42-1.5,10.3,2.43Z"/><polygon class="cls-1_online-class-19" points="83.4 231.32 78.21 252.34 90 254.38 89.06 238.67 83.4 231.32"/><path class="cls-1_online-class-19" d="m94.77,229.79l2.28,2.17c.56.54.38,1.47-.35,1.75l-2.4.93.47-4.85Z"/><path class="cls-7_online-class-19" d="m89.09,239.11s-4.02-1.86-5.12-3.5c0,0,.23,8.65,5.58,11.17l-.46-7.66Z"/><path class="cls-1_online-class-19" d="m87.29,231.72s-.51-2.49-2.36-1.95-1.12,4.15,1.49,4.01l.86-2.06Z"/><path class="cls-1_online-class-19" d="m83.48,229.14s-3.21-1.9-4.4.66,2.39,4.55,4.82,3c0,0-.94-1.64-.42-3.66Z"/><rect class="cls-4_online-class-19" x="33.18" y="370.44" width="76.58" height="54.73" transform="translate(142.94 795.61) rotate(-180)"/><polygon class="cls-6_online-class-19" points="89.55 425.17 93.23 376.99 108.59 379.33 113.17 397.81 109.76 425.17 89.55 425.17"/><path class="cls-10_online-class-19 targetColor" d="m91.47,418.84s1.64,4.56,5.76,4.91,5.2,4.38,1.5,5.43c-3.71,1.05-13.27-3.71-13.27-3.71l.27-5.95,5.74-.68Z" style="fill: rgb(104, 225, 253);"/><path class="cls-10_online-class-19 targetColor" d="m91,254.14l-11.79-2.03s-39.22.06-46.09,13.49c-6.86,13.43-5.42,63.43,17.26,104.47l46.45,1.35s-2.58-30.14,6.08-46.56c8.66-16.42,38.61-33.08-11.92-70.71Z" style="fill: rgb(104, 225, 253);"/><path class="cls-12_online-class-19" d="m50.39,370.07l22.72-3.43c14.05-2.12,26.33,9.59,24.88,23.73l-2.97,28.87h-11.15s.97-27.02.97-27.02c.23-6.44-5.48-11.51-11.84-10.48-9.67,1.56-21.65.89-22.61-11.66Z"/><path class="cls-10_online-class-19 targetColor" d="m114.6,418.84s1.64,4.56,5.76,4.91c4.12.35,5.2,4.38,1.5,5.43-3.71,1.05-13.27-3.71-13.27-3.71l.27-5.95,5.74-.68Z" style="fill: rgb(104, 225, 253);"/><path class="cls-6_online-class-19" d="m54.37,270.41s12.88,11.29,10.29,23.75c-.42,2.01-.85,4.45-1.29,7.12-3.41,20.92,2.74,42.28,16.7,58.23l8.11,9.28-37.8,1.27-3.23-6.33-17.65-29.33,24.86-63.99Z"/><path class="cls-12_online-class-19" d="m73.51,370.07l22.72-3.43c14.05-2.12,26.33,9.59,24.88,23.73l-2.97,28.87h-11.15s.97-27.02.97-27.02c.23-6.44-5.48-11.51-11.84-10.48-9.67,1.56-21.65.89-22.61-11.66Z"/><path class="cls-1_online-class-19" d="m81.66,357.62l-26.97-6.7c-6.28-.91-10.26-7.19-8.41-13.26,4.75-15.64,12.11-43.98,10.21-64.19-1.16-12.27-16.88-16.69-24.02-6.64-8.6,12.11-16.25,38.86-9.61,76.54,2.02,11.47,11.69,20.04,23.31,20.77l35.49,2.24s10.3,5.89,12.35-1.63c2.05-7.51-12.35-7.15-12.35-7.15Z"/><path class="cls-12_online-class-19" d="m87.29,223.91c.08.02.15.04.23.06.77.23,1.51.6,2.32.67,1.66.15,3.26-1.13,3.74-2.73s-.04-3.39-1.08-4.7c-2.96-3.73-8.1-3.57-12.06-1.66-5.02,2.42-8.21,5.24-10.52,10.46-1.46,3.3-2.61,6.8-4.7,9.74-1.81,2.55-4.29,4.62-7.13,5.93,3.93,4.53,10.11,7,16.08,6.42,3.43-.33,7.25-2.03,9.09-5.12,1.28-2.14,1.36-7.53-.09-9.62-.79-1.14-4.15-2.75-1.65-4.58.74-.54,2.07-.06,2.05.86-.01-1.44.26-2.88.79-4.21.19-.47.43-.95.83-1.26.58-.44,1.37-.43,2.09-.26Z"/><rect class="cls-13_online-class-19" x="95.29" y="347.25" width="97.93" height="87.88"/><rect class="cls-13_online-class-19" x="90" y="337.03" width="108.5" height="10.21"/><path class="cls-6_online-class-19" d="m193.22,347.25v19.43c-1.4,1.04-2.85,2-4.35,2.88-7.21,4.23-15.44,6.4-23.09,9.85-19.33,8.73-34.2,25.57-43.71,44.52-1.85,3.66-3.5,7.4-4.99,11.2h-21.79v-87.88h97.93Z"/><rect class="cls-12_online-class-19" x="110.39" y="326.75" width="54.84" height="10.28"/><rect class="cls-12_online-class-19" x="115.68" y="317.35" width="54.84" height="9.4"/><rect class="cls-11_online-class-19" x="115.68" y="317.35" width="54.84" height="9.4"/></g></svg>